<svg xmlns="http://www.w3.org/2000/svg" width="53.76" height="21.28" viewBox="0 0 53.76 21.28"><g opacity="1"><path d="M0.0000 8.9600L34.7200 0.0000L53.7600 11.2000L18.4800 21.2800L0.0000 8.9600Z" fill="#73CECC" fill-opacity="1" fill-rule="nonzero"/><path d="M0.0000 8.9600L-0.1399 8.4178L-1.3532 8.7309L-0.3106 9.4259L0.0000 8.9600ZM34.7200 0.0000L35.0039 -0.4827L34.8043 -0.6001L34.5801 -0.5422L34.7200 0.0000ZM53.7600 11.2000L53.9138 11.7385L55.1698 11.3796L54.0439 10.7173L53.7600 11.2000ZM18.4800 21.2800L18.1694 21.7459L18.3848 21.8896L18.6338 21.8185L18.4800 21.2800ZM0.0000 8.9600L0.1399 9.5022L34.8599 0.5422L34.7200 0.0000L34.5801 -0.5422L-0.1399 8.4178L0.0000 8.9600ZM34.7200 0.0000L34.4361 0.4827L53.4761 11.6827L53.7600 11.2000L54.0439 10.7173L35.0039 -0.4827L34.7200 0.0000ZM53.7600 11.2000L53.6062 10.6615L18.3262 20.7415L18.4800 21.2800L18.6338 21.8185L53.9138 11.7385L53.7600 11.2000ZM18.4800 21.2800L18.7906 20.8141L0.3106 8.4941L0.0000 8.9600L-0.3106 9.4259L18.1694 21.7459L18.4800 21.2800Z" fill="#147E83" fill-opacity="1" fill-rule="nonzero"/></g></svg>
